<svg xmlns="http://www.w3.org/2000/svg" xmlns:xlink="http://www.w3.org/1999/xlink" width="699.999" height="1116" viewBox="0 0 699.999 1116">
  <defs>
    <clipPath id="clip-path">
      <rect id="Rectangle_2261" data-name="Rectangle 2261" width="173" height="216" fill="#f4f4f4" stroke="#f4f4f4" stroke-width="1"/>
    </clipPath>
  </defs>
  <g id="Group_2948" data-name="Group 2948" transform="translate(-1220.001 -3856)">
    <g id="Union_10" data-name="Union 10" transform="translate(1920 4756) rotate(180)" fill="#f4f4f4">
      <path d="M 525.9996337890625 899.5 L 174.0006713867188 899.5 L 0.5008864998817444 899.5 L 0.5008864998817444 641.0961303710938 L 0.5008864998817444 640.5961303710938 L 0.4999976456165314 640.5961303710938 L 0.4999976456165314 515.447998046875 L 0.4999976456165314 0.5 L 283.8797607421875 0.5 L 525.998779296875 0.5 C 537.7708740234375 0.5 549.5353393554688 1.685999989509583 560.965576171875 4.02488899230957 C 572.10498046875 6.304333209991455 583.0621337890625 9.705666542053223 593.5325317382812 14.13422203063965 C 603.81298828125 18.4825553894043 613.7285766601562 23.86444473266602 623.0037841796875 30.13066673278809 C 632.1909790039062 36.33744430541992 640.8302001953125 43.46555709838867 648.6815795898438 51.31689071655273 C 656.5328979492188 59.16822052001953 663.6610107421875 67.80744171142578 669.8677978515625 76.99466705322266 C 676.1339721679688 86.26988983154297 681.515869140625 96.18544769287109 685.8641967773438 106.4658889770508 C 690.2927856445312 116.9363327026367 693.694091796875 127.8934478759766 695.9735717773438 139.0328826904297 C 698.3124389648438 150.4631042480469 699.4984130859375 162.2275543212891 699.4984130859375 173.9996643066406 L 699.4984130859375 213.7986602783203 L 699.4984130859375 258.9039001464844 L 699.4984130859375 259.4039001464844 L 699.4993286132812 259.4039001464844 L 699.4993286132812 686.201416015625 L 699.4993286132812 726.0003051757812 C 699.4993286132812 737.7724609375 698.3133544921875 749.5369873046875 695.9744262695312 760.9671020507812 C 693.6950073242188 772.1065673828125 690.2936401367188 783.0637817382812 685.8651123046875 793.5341186523438 C 681.5167846679688 803.8146362304688 676.1348876953125 813.730224609375 669.86865234375 823.0053100585938 C 663.661865234375 832.1925659179688 656.5337524414062 840.8319091796875 648.6824340820312 848.6832275390625 C 640.8311157226562 856.5345458984375 632.19189453125 863.6625366210938 623.004638671875 869.8693237304688 C 613.7294311523438 876.1355590820312 603.8139038085938 881.517578125 593.533447265625 885.8657836914062 C 583.06298828125 890.2943115234375 572.1058959960938 893.6956787109375 560.9664306640625 895.97509765625 C 549.5361938476562 898.3140258789062 537.7717895507812 899.5 525.9996337890625 899.5 Z" stroke="none"/>
      <path d="M 525.9996337890625 899 C 537.7380981445312 899 549.4688720703125 897.8174438476562 560.8662109375 895.4852294921875 C 571.9733276367188 893.2124633789062 582.898681640625 889.8209838867188 593.3386840820312 885.4052124023438 C 603.5894165039062 881.069580078125 613.476318359375 875.703125 622.7247924804688 869.4550170898438 C 631.8856811523438 863.26611328125 640.5001220703125 856.158447265625 648.328857421875 848.3296508789062 C 656.1577758789062 840.5007934570312 663.2653198242188 831.8863525390625 669.454345703125 822.7254638671875 C 675.7024536132812 813.4769897460938 681.0689086914062 803.590087890625 685.404541015625 793.33935546875 C 689.8203125 782.8993530273438 693.2117919921875 771.9739990234375 695.4845581054688 760.8668823242188 C 697.8167724609375 749.4696655273438 698.9993286132812 737.73876953125 698.9993286132812 726.0003051757812 L 698.9984130859375 173.9996643066406 C 698.9984130859375 162.2612152099609 697.8158569335938 150.5304412841797 695.483642578125 139.1331176757812 C 693.2108764648438 128.0260009765625 689.8194580078125 117.1006698608398 685.4036865234375 106.6606674194336 C 681.0679931640625 96.40988922119141 675.7015380859375 86.52300262451172 669.4534301757812 77.27455902099609 C 663.2644653320312 68.11367034912109 656.1568603515625 59.49922180175781 648.3280029296875 51.67044448852539 C 640.4992065429688 43.84155654907227 631.884765625 36.73400115966797 622.723876953125 30.54500007629395 C 613.4754638671875 24.29688835144043 603.5885620117188 18.93044471740723 593.3377685546875 14.59477806091309 C 582.8977661132812 10.17899990081787 571.972412109375 6.787555694580078 560.8653564453125 4.514777660369873 C 549.468017578125 2.182555437088013 537.7372436523438 1 525.998779296875 1 L 0.999997615814209 1 L 1.000886559486389 899 L 525.9996337890625 899 M 525.9996337890625 900 L 0.0008865288691595197 900 L -2.360025973757729e-06 0 L 525.998779296875 0 C 622.09619140625 0 699.9984130859375 77.9022216796875 699.9984130859375 173.9996643066406 L 699.9993286132812 726.0003051757812 C 699.9993286132812 822.097900390625 622.0971069335938 900 525.9996337890625 900 Z" stroke="none" fill="#f4f4f4"/>
    </g>
    <g id="Mask_Group_3" data-name="Mask Group 3" transform="translate(1747 4756)" clip-path="url(#clip-path)">
      <path id="Subtraction_3" data-name="Subtraction 3" d="M173.164,900H0V726.763a175.431,175.431,0,0,0,3.535,34.3,173.046,173.046,0,0,0,26.181,62.218,174.509,174.509,0,0,0,76.555,63.041,173.111,173.111,0,0,0,32.662,10.139A175.289,175.289,0,0,0,173.164,900ZM0,173.162H0V0h173.25a175.441,175.441,0,0,0-34.318,3.536A173.045,173.045,0,0,0,76.716,29.716a174.51,174.51,0,0,0-63.041,76.555A173.113,173.113,0,0,0,3.536,138.933,175.282,175.282,0,0,0,0,173.162Z" transform="translate(173.001 900) rotate(180)" fill="#f4f4f4"/>
    </g>
  </g>
</svg>
