<svg xmlns="http://www.w3.org/2000/svg" width="21.852" height="22.141" viewBox="0 0 21.852 22.141">
  <path id="Path_13483" data-name="Path 13483" d="M36.1,28.888a.7.7,0,0,1-.8-.585l-.584-3.735a8.147,8.147,0,0,0-5.838-6.618,3.141,3.141,0,0,0-6.209.955,7.861,7.861,0,0,0-3.56,7.871l.626,3.976a.709.709,0,0,1-.585.8,2.429,2.429,0,0,0-2.081,2.323A2.364,2.364,0,0,0,19.4,36.267h.025a2.418,2.418,0,0,0,.368-.028l2.425-.381a3.126,3.126,0,0,0,5.791-.911l8.907-1.4a2.364,2.364,0,0,0,1.875-3.084A2.428,2.428,0,0,0,36.1,28.888ZM24.269,18.123a1.576,1.576,0,0,1,1.273-1.132,1.654,1.654,0,0,1,.248-.02,1.584,1.584,0,0,1,1.312.709h-.038a7.51,7.51,0,0,0-.881.025,8.01,8.01,0,0,0-.918.142c-.065.013-.13.032-.195.048-.248.058-.492.127-.73.208C24.317,18.11,24.292,18.114,24.269,18.123Zm.674,17.757a1.554,1.554,0,0,1-.927-.306l2.206-.346A1.576,1.576,0,0,1,24.943,35.88Zm12.281-4.26a.788.788,0,0,1-.551.369l-9.49,1.492h0l-4.611.726h0l-3.018.473a.778.778,0,0,1-.637-.181.788.788,0,0,1-.277-.61.855.855,0,0,1,.75-.777,2.285,2.285,0,0,0,1.9-2.6l-.625-3.976a6.32,6.32,0,0,1,3.188-6.506l.04-.016a6.3,6.3,0,0,1,2.438-.736,5.69,5.69,0,0,1,.778-.015l.129.006a6.2,6.2,0,0,1,.8.1h.025a6.547,6.547,0,0,1,5.093,5.444l.588,3.735a2.279,2.279,0,0,0,2.6,1.9.855.855,0,0,1,.952.507h0A.788.788,0,0,1,37.224,31.62Z" transform="translate(-17.064 -15.314)" fill="#a2a2a2"/>
</svg>
