<svg id="Group_2575" data-name="Group 2575" xmlns="http://www.w3.org/2000/svg" width="27.185" height="27.185" viewBox="0 0 27.185 27.185">
  <path id="Path_7707" data-name="Path 7707" d="M483.369-1142.939a1.88,1.88,0,0,1-.631,1.441,2.009,2.009,0,0,1-1.423.58,2,2,0,0,1-1.422-.58,1.862,1.862,0,0,1-.613-1.441,1.924,1.924,0,0,1,.613-1.461,2,2,0,0,1,1.422-.58,2.063,2.063,0,0,1,1.441.58A1.928,1.928,0,0,1,483.369-1142.939Zm2.792-9.725a3.856,3.856,0,0,1-.9,2.74,15.779,15.779,0,0,1-1.982,1.382,1.615,1.615,0,0,0-.594.519,1.342,1.342,0,0,0-.072.56,1.349,1.349,0,0,1-.378,1.022,1.206,1.206,0,0,1-.882.36,1.331,1.331,0,0,1-.919-.321,1.339,1.339,0,0,1-.432-1.062v-.96a2.216,2.216,0,0,1,.919-1.82q.865-.522,1.711-1.022a1.554,1.554,0,0,0,.917-1.261q0-1.539-2.161-1.54a2.191,2.191,0,0,0-1.566.541,6.616,6.616,0,0,0-.9,1.24,1.472,1.472,0,0,1-1.225.84,1.186,1.186,0,0,1-.919-.42,1.492,1.492,0,0,1-.36-1.04,3.67,3.67,0,0,1,1.1-2.282,4.91,4.91,0,0,1,3.872-1.68,4.944,4.944,0,0,1,3.477,1.24A3.881,3.881,0,0,1,486.16-1152.664Z" transform="translate(-467.695 1162.485)" fill="#767676"/>
  <path id="Path_7708" data-name="Path 7708" d="M491.282-1139.718a10.835,10.835,0,0,1-7.689,3.185,10.84,10.84,0,0,1-7.689-3.185,10.84,10.84,0,0,1-3.185-7.689,10.837,10.837,0,0,1,3.185-7.689,10.837,10.837,0,0,1,7.689-3.185,10.834,10.834,0,0,1,7.689,3.185,10.826,10.826,0,0,1,3.185,7.689A10.828,10.828,0,0,1,491.282-1139.718ZM483.592-1161A13.594,13.594,0,0,0,470-1147.408a13.594,13.594,0,0,0,13.592,13.592,13.592,13.592,0,0,0,13.592-13.592A13.592,13.592,0,0,0,483.592-1161Z" transform="translate(-470 1161)" fill="#767676"/>
</svg>
