<svg xmlns="http://www.w3.org/2000/svg" width="26.71" height="23.547" viewBox="0 0 26.71 23.547">
  <g id="Group_2316" data-name="Group 2316" transform="translate(0.001 -0.001)">
    <path id="Path_908" data-name="Path 908" d="M199.491,894.565a.976.976,0,0,0-.251.405c-.456,1.453-.985,3.191-1.492,4.683-.253.745-.5,1.429-.726,1.975-.111.272-.219.51-.312.7a2.883,2.883,0,0,1-.224.389,1.443,1.443,0,0,1-.638.506,2.461,2.461,0,0,1-.923.153,16.021,16.021,0,0,1-2.908-.488,12.066,12.066,0,0,1-1.514-.489c-1-.371-2.243-.877-3.444-1.293-.6-.209-1.193-.4-1.751-.535-.213-.053-.418-.092-.621-.13v-7.447a4.722,4.722,0,0,0,1.3-.606,15.1,15.1,0,0,0,2.615-2.463,16.711,16.711,0,0,1,2.339-2.288,8.205,8.205,0,0,0,1.911-2.171c.25-.384.469-.753.649-1.069s.319-.568.408-.721a.809.809,0,0,1,.441.261,1.056,1.056,0,0,1,.3.73l-.014.165a4.255,4.255,0,0,1-.765,1.752c-.17.243-.344.453-.495.632-.076.091-.147.173-.214.254a2.4,2.4,0,0,0-.206.283h0s-.089.128-.2.271c-.17.223-.4.515-.6.842a3.707,3.707,0,0,0-.286.536,1.879,1.879,0,0,0-.158.72,1.507,1.507,0,0,0,.767,1.354,2.765,2.765,0,0,0,1,.319,9.129,9.129,0,0,0,1.347.08h4.232a1.381,1.381,0,0,1,.917.349,1.054,1.054,0,0,1,.367.8A2.252,2.252,0,0,1,199.491,894.565Zm-4.881-5.825Zm7.657,4.279a2.98,2.98,0,0,0-1-2.226,3.3,3.3,0,0,0-2.2-.841h-4.232a8.173,8.173,0,0,1-.98-.048c-.026,0-.041-.007-.065-.011.1-.163.236-.352.375-.533.081-.107.161-.21.235-.309s.136-.183.2-.293h0s.036-.048.089-.111a11.234,11.234,0,0,0,.963-1.262,5.935,5.935,0,0,0,.889-2.254,2.843,2.843,0,0,0,.038-.467,2.987,2.987,0,0,0-.836-2.057,2.624,2.624,0,0,0-1.851-.857,1.855,1.855,0,0,0-1.63.937c-.117.2-.257.455-.427.754a15.936,15.936,0,0,1-.933,1.472,5.31,5.31,0,0,1-1.084,1.164h0a27.846,27.846,0,0,0-3.423,3.405,9.08,9.08,0,0,1-1.466,1.3,2.205,2.205,0,0,1-1.2.437.962.962,0,0,0-.961.961v9.115a.962.962,0,0,0,.961.961,6.5,6.5,0,0,1,1.612.312c1.033.3,2.273.779,3.405,1.216.566.217,1.108.426,1.594.6a10.093,10.093,0,0,0,1.3.39,17.118,17.118,0,0,0,3.284.525,4.334,4.334,0,0,0,1.65-.3,3.377,3.377,0,0,0,1.458-1.146h0a4.7,4.7,0,0,0,.394-.668,29.482,29.482,0,0,0,1.334-3.5c.431-1.305.863-2.71,1.244-3.925A4.025,4.025,0,0,0,202.266,893.019Z" transform="translate(-175.557 -881.748)" fill="#f09a44"/>
    <path id="Path_909" data-name="Path 909" d="M181.479,899.886a.221.221,0,0,1-.22.221h-1.007a.814.814,0,0,1-.812-.812v-7.921a.815.815,0,0,1,.812-.813h1.227Zm.962-11.246h-2.189a2.733,2.733,0,0,0-2.733,2.735V899.3a2.733,2.733,0,0,0,2.733,2.735h1.007a2.144,2.144,0,0,0,2.142-2.144V889.6a.96.96,0,0,0-.961-.961Z" transform="translate(-177.52 -879.169)" fill="#f09a44"/>
  </g>
</svg>
