<svg xmlns="http://www.w3.org/2000/svg" width="158.484" height="151.598" viewBox="0 0 158.484 151.598">
  <g id="Icon_feather-shopping-cart" data-name="Icon feather-shopping-cart" transform="translate(2 2)">
    <path id="Path_3596" data-name="Path 3596" d="M25.771,36.886A6.886,6.886,0,1,1,18.886,30,6.886,6.886,0,0,1,25.771,36.886Z" transform="translate(37.699 102.327)" fill="none" stroke="#000" stroke-linecap="round" stroke-linejoin="round" stroke-width="7"/>
    <path id="Path_3597" data-name="Path 3597" d="M42.271,36.886A6.886,6.886,0,1,1,35.386,30,6.886,6.886,0,0,1,42.271,36.886Z" transform="translate(96.941 102.327)" fill="none" stroke="#000" stroke-linecap="round" stroke-linejoin="round" stroke-width="7"/>
    <path id="Path_3598" data-name="Path 3598" d="M1.5,1.5H29.042L47.5,93.7a13.771,13.771,0,0,0,13.771,11.086H128.2A13.771,13.771,0,0,0,141.967,93.7l11.017-57.77H35.928" fill="none" stroke="#000" stroke-linecap="round" stroke-linejoin="round" stroke-width="7"/>
  </g>
</svg>
