<svg xmlns="http://www.w3.org/2000/svg" width="31.586" height="28.909" viewBox="0 0 31.586 28.909">
  <g id="Group_2574" data-name="Group 2574" transform="translate(0)">
    <g id="Group_2573" data-name="Group 2573">
      <g id="Group_2570" data-name="Group 2570" transform="translate(0)">
        <path id="Path_13465" data-name="Path 13465" d="M15.085,22.9H2.983a1.011,1.011,0,0,1-.994-1.219,10.823,10.823,0,0,1,10.33-8.491q.13,0,.261,0t.263-.005a10.815,10.815,0,0,1,4.375,1.026.988.988,0,0,0,1.309-.46.965.965,0,0,0-.466-1.293,12.879,12.879,0,0,0-1.479-.586A6.567,6.567,0,0,0,19.262,6.6,6.683,6.683,0,0,0,5.9,6.6a6.568,6.568,0,0,0,2.684,5.285A12.818,12.818,0,0,0,4.463,14.12a12.637,12.637,0,0,0-4.4,7.17,2.92,2.92,0,0,0,.607,2.47,2.981,2.981,0,0,0,2.311,1.086h12.1a.971.971,0,1,0,0-1.941ZM7.862,6.6a4.717,4.717,0,0,1,9.434,0,4.69,4.69,0,0,1-4.477,4.653l-.24,0-.238,0A4.69,4.69,0,0,1,7.862,6.6Z" transform="translate(0 0)" fill="#58b2be"/>
      </g>
      <path id="Path_13474" data-name="Path 13474" d="M951.126,538.252a7.126,7.126,0,1,1,7.126-7.126,7.134,7.134,0,0,1-7.126,7.126Zm0-12.608a5.482,5.482,0,1,0,5.482,5.482,5.488,5.488,0,0,0-5.482-5.482Zm0,0" transform="translate(-926.667 -509.343)" fill="#58b2be"/>
    </g>
    <path id="Path_13475" data-name="Path 13475" d="M1036.822,579.674a.822.822,0,0,1-.822-.822v-6.03a.822.822,0,1,1,1.644,0v6.03a.822.822,0,0,1-.822.822Zm0,0" transform="translate(-1012.363 -554.055)" fill="#58b2be"/>
    <path id="Path_13476" data-name="Path 13476" d="M998.852,617.644h-6.03a.822.822,0,1,1,0-1.644h6.03a.822.822,0,0,1,0,1.644Zm0,0" transform="translate(-971.376 -595.039)" fill="#58b2be"/>
  </g>
</svg>
