<svg xmlns="http://www.w3.org/2000/svg" width="112.035" height="25.8" viewBox="0 0 112.035 25.8">
  <path id="Path_13515" data-name="Path 13515" d="M11.7-1.59a4.147,4.147,0,0,0,2.73-.675A3.428,3.428,0,0,0,15.21-4.8a.33.33,0,0,0-.24-.33,8.083,8.083,0,0,0-2.88-.63,4.988,4.988,0,0,0-2.535.48A1.615,1.615,0,0,0,8.79-3.81a1.941,1.941,0,0,0,.765,1.635A3.463,3.463,0,0,0,11.7-1.59ZM5.01-17.7a1.642,1.642,0,0,1-1.2-.51,1.642,1.642,0,0,1-.51-1.2A1.593,1.593,0,0,1,3.81-20.6a1.667,1.667,0,0,1,1.2-.495h9.93a.239.239,0,0,0,.27-.27v-.93a1.667,1.667,0,0,1,.495-1.2A1.593,1.593,0,0,1,16.89-24h.42a1.593,1.593,0,0,1,1.185.51,1.667,1.667,0,0,1,.495,1.2v.93a.239.239,0,0,0,.27.27h5.73a1.667,1.667,0,0,1,1.2.495,1.593,1.593,0,0,1,.51,1.185,1.642,1.642,0,0,1-.51,1.2,1.642,1.642,0,0,1-1.2.51H19.26q-.27,0-.27.24v2.1a.239.239,0,0,0,.27.27h4.68a1.592,1.592,0,0,1,1.17.48,1.592,1.592,0,0,1,.48,1.17,1.642,1.642,0,0,1-.48,1.185,1.568,1.568,0,0,1-1.17.495H19.26a.239.239,0,0,0-.27.27v4.32a.459.459,0,0,0,.21.39A36.83,36.83,0,0,1,24.81-2.7a1.54,1.54,0,0,1,.57,1.17A1.625,1.625,0,0,1,24.93-.3l-.09.09a1.722,1.722,0,0,1-1.185.555A1.557,1.557,0,0,1,22.44-.09q-1.89-1.65-3.39-2.73-.21-.15-.27.09A5.015,5.015,0,0,1,16.6.735,9.278,9.278,0,0,1,11.7,1.8a7.667,7.667,0,0,1-5-1.485A5.036,5.036,0,0,1,4.89-3.81,4.834,4.834,0,0,1,6.555-7.635Q8.22-9.09,11.7-9.09a11.74,11.74,0,0,1,3.27.45q.24.06.24-.18v-2.67a.239.239,0,0,0-.27-.27H6.06a1.592,1.592,0,0,1-1.17-.48,1.592,1.592,0,0,1-.48-1.17A1.642,1.642,0,0,1,4.89-14.6a1.568,1.568,0,0,1,1.17-.495h8.88a.239.239,0,0,0,.27-.27v-2.07a.239.239,0,0,0-.27-.27ZM45.63-1.74a4.611,4.611,0,0,0,.42-1.65,1.624,1.624,0,0,0-.72-1.425,4.83,4.83,0,0,0-2.58-.495,4.371,4.371,0,0,0-2.295.495,1.427,1.427,0,0,0-.8,1.215q0,2.1,5.1,2.1h.54A.366.366,0,0,0,45.63-1.74ZM35.67-8.58a1.53,1.53,0,0,1-1.185.06A1.575,1.575,0,0,1,33.6-9.3a1.6,1.6,0,0,1-.12-1.215,1.572,1.572,0,0,1,.75-.975l12.66-7.65.03-.03-.03-.03H36.6a1.607,1.607,0,0,1-1.155-.48,1.568,1.568,0,0,1-.495-1.17,1.568,1.568,0,0,1,.495-1.17A1.607,1.607,0,0,1,36.6-22.5H52.35a1.718,1.718,0,0,1,1.215.5,1.572,1.572,0,0,1,.525,1.185,2.629,2.629,0,0,1-1.47,2.52l-8.37,4.65v.03h.06a18.9,18.9,0,0,1,3.63-.39q4.29,0,6.495,1.77a6.09,6.09,0,0,1,2.2,5.04A7.756,7.756,0,0,1,53.55-.615Q50.46,1.71,44.76,1.71q-4.47,0-6.69-1.365A4.365,4.365,0,0,1,35.85-3.6a4.023,4.023,0,0,1,1.89-3.345A8.772,8.772,0,0,1,42.96-8.31q3.42,0,4.95,1.14a3.927,3.927,0,0,1,1.53,3.36,7.665,7.665,0,0,1-.15,1.35.1.1,0,0,0,.045.135.135.135,0,0,0,.135.015,4.573,4.573,0,0,0,2.97-4.53,3.6,3.6,0,0,0-1.455-3.12,8.033,8.033,0,0,0-4.635-1.05A25.46,25.46,0,0,0,35.67-8.58Zm29.55-4.56v-.09a1.641,1.641,0,0,1,.24-1.29,1.666,1.666,0,0,1,1.08-.75,49.484,49.484,0,0,1,9.36-1.38q9.24,0,9.24,7.71Q85.14.27,71.1.75A1.744,1.744,0,0,1,69.825.285,1.665,1.665,0,0,1,69.24-.93V-.96a1.471,1.471,0,0,1,.405-1.185A1.623,1.623,0,0,1,70.8-2.67q5.55-.21,8.01-1.7a4.743,4.743,0,0,0,2.46-4.3A4.06,4.06,0,0,0,79.9-12.06a7.05,7.05,0,0,0-4.365-1.08,43.953,43.953,0,0,0-8.28,1.29,1.662,1.662,0,0,1-1.275-.225A1.6,1.6,0,0,1,65.22-13.14ZM105.39,1.5q-5.55,0-8.37-1.86A6.1,6.1,0,0,1,94.2-5.79q0-3.9,4.65-6.99a.377.377,0,0,0,.15-.36v-.09q-1.14-4.83-1.71-8.04a1.661,1.661,0,0,1,.285-1.275,1.623,1.623,0,0,1,1.1-.705l.75-.12a1.586,1.586,0,0,1,1.26.3,1.815,1.815,0,0,1,.72,1.11q.66,3.54,1.44,6.78.06.3.3.18a65.9,65.9,0,0,1,9.78-3.12,1.676,1.676,0,0,1,1.29.225,1.511,1.511,0,0,1,.72,1.065l.06.27a1.641,1.641,0,0,1-.24,1.29,1.666,1.666,0,0,1-1.08.75,45.336,45.336,0,0,0-11.43,4.08Q98.4-8.22,98.4-6q0,3.9,6.99,3.9a60.1,60.1,0,0,0,8.01-.54,1.638,1.638,0,0,1,1.245.33,1.6,1.6,0,0,1,.645,1.11l.03.21a1.7,1.7,0,0,1-.345,1.275A1.618,1.618,0,0,1,113.85.96,60.591,60.591,0,0,1,105.39,1.5Z" transform="translate(-3.3 24)" fill="#030302"/>
</svg>
